<svg xmlns="http://www.w3.org/2000/svg" version="1.1" xmlns:xlink="http://www.w3.org/1999/xlink" width="517.22" height="578.87"><svg id="SvgjsSvg1002" xmlns="http://www.w3.org/2000/svg" version="1.1" viewBox="0 0 517.22 578.87">
  <!-- Generator: Adobe Illustrator 29.5.1, SVG Export Plug-In . SVG Version: 2.1.0 Build 141)  -->
  <defs>
    <style>
      .st0 {
        fill: #f6d047;
      }

      .st1 {
        fill: #fefcf8;
      }

      .st2 {
        fill: #fdfcf8;
      }

      .st3 {
        fill: #e46243;
      }
    </style>
  </defs>
  <path class="st0" d="M325.52,543.59c-18.99,3.1-37.88,4.87-56.85,5.04-15.19.14-30.39-.83-45.58-.8-31.9.07-62.39-6.78-92.01-18.04-19.06-7.25-34.92-18.89-47.58-35.02-18.62-23.72-34.11-49.1-43.06-78.13-4.69-15.19-7.93-30.72-10.04-46.45-2.19-16.29-4-32.63-5.71-48.98-.9-8.56-1.41-17.17-1.78-25.77-.79-18.47-1.33-36.95-2.04-55.42-.8-20.82-.18-41.61,1.35-62.37,1.96-26.58,9-51.78,21.38-75.41,7.96-15.19,20.07-26.07,35.32-33.73,22.88-11.49,47.13-19.07,71.81-25.43,24.39-6.29,49.16-10.61,74.21-13.1,15.01-1.49,30.09-2.41,45.16-3.17,12.76-.64,25.55-1.06,38.32-.88,17.28.25,34.4,2.16,50.68,8.51,13.14,5.12,24.38,13.38,35.34,22.07,25.72,20.39,44.73,46.04,58.36,75.65,9.24,20.08,15.54,41.26,21.12,62.63,5.38,20.62,9.16,41.57,11.56,62.72,2.74,24.12,5.13,48.28,7.04,72.47,1.22,15.52,1.55,31.12,1.81,46.7.28,17.13.29,34.27-.06,51.39-.34,16.69-4.67,32.33-14.45,46.12-5.51,7.78-12.99,13.54-20.7,18.92-24.93,17.4-52.31,29.79-81.41,38.14-17.07,4.9-34.58,8.24-52.15,12.31M131.43,330.17c14.63-2.8,26.83-9.72,36-21.59,8.98-11.62,12.86-24.94,11.5-39.44-1.42-15.25-8.19-28.09-19.83-38.2-9.26-8.04-20-12.9-32.21-13.93-15.37-1.3-29.11,3.12-40.93,13.05-16.83,14.14-23.79,32.37-19.85,53.85,4.03,21.97,17.61,36.47,38.5,44.66.4,21.1.38,42.22,1.35,63.29.65,14.27,2.31,28.53,4.21,42.7,1.65,12.33,8.18,21.59,20.02,26.49,7.33,3.03,14.7,5.97,22.06,8.92,14.67,5.87,29.79,9.67,45.69,9.87,14.43.18,28.85.4,43.28.55,12.03.13,23.67-2.1,35-6.04,12.79-4.44,25.56-8.95,38.36-13.36,9.69-3.34,19.55-6.15,28.35-11.73,7.89-5,7.26-4.38,12.09,2.66,11.74,17.08,27.82,25.33,48.6,23.68,11.77-.93,21.29-6.38,27.04-16.71,6.34-11.4,7.47-23.94,4.57-36.6-2.8-12.25-8.9-22.42-20.29-28.73-2.27-1.26-2.36-3.42-1.98-5.6.99-5.72,2.06-11.42,3.12-17.13,3.42-18.38,6.25-36.8,5.57-55.62-.28-7.76-1.48-15.23-4.87-22.21-4.01-8.27-8.15-16.48-12.4-24.63-2.15-4.11-4.54-8.11-7.04-12.02-5.14-8.08-15.01-7.54-19.94-4.13-6.36,4.4-7.54,13.49-2.83,20.38,2.67,3.9,5.4,7.8,7.67,11.94,3.06,5.6,5.65,11.45,8.52,17.15,2.15,4.25,2.93,8.71,3,13.45.22,16.8-1.36,33.42-4.81,49.86-1.15,5.47-1.47,11.25-5.47,15.67-3.18,3.51-6.27,7.18-9.89,10.18-12.51,10.38-25.27,20.47-37.87,30.74-7.13,5.81-14.92,10.24-23.73,13.09-11.23,3.63-22.34,7.65-33.38,11.8-15.23,5.72-30.92,8.43-47.17,8.26-11.62-.13-23.25-.03-34.87-.25-3.75-.07-7.68-.25-11.18-1.41-12.39-4.08-24.59-8.78-36.97-12.89-6.96-2.31-10.27-6.95-11.14-13.98-1.39-11.22-3.33-22.39-4.43-33.63-1-10.29-1.41-20.65-1.69-30.98-.28-10.44-.09-20.9.33-31.44M357.81,197.18c1.73-.18,3.46-.32,5.19-.54,22.64-2.88,41.5-19.27,42.06-46.59.57-27.7-25.31-47.48-52.79-43.73-11.58,1.58-20.93,7.56-28.56,16.37-5.95,6.87-14.13,8.67-22.57,8.73-29.25.21-58.51.09-87.76.08-26.06,0-52.11.03-78.17-.05-7.44-.02-14.35,5.16-13.82,13.71.42,6.85.19,13.75.05,20.63-.13,6.64,2.89,11.45,8.16,15.11,2.62,1.82,5.38,3.49,7.79,5.56,4.73,4.06,10.28,5.67,16.3,5.96,7.65.37,14.34-2.75,20.94-6.07,4.4-2.21,8.92-3.52,13.94-3.25,4.93.26,9.88.07,14.82.07,4.92,0,9.84,0,14.99,0,.06,1.19.16,2.13.14,3.07-.09,5.42-.24,10.83-.32,16.25-.22,16.17-.42,32.34-.63,48.51-.27,20.72-.65,41.44-.73,62.16-.02,6.28-1.97,11.52-6.16,16.04-1.25,1.35-2.62,2.59-3.82,3.98-7.24,8.35-12.05,17.88-12.49,29.04-.81,20.47,12.88,39.74,32.75,47.22,8.94,3.37,18.15,3.51,27.46,3.4,8.72-.1,17.11-1.57,25.07-5.27,24.93-11.6,40.32-39.91,30.22-68.76-4.87-13.93-8.32-28.14-11.05-42.61-6.38-33.82-13.03-67.59-19.57-101.38-.73-3.75-1.38-7.52-2.1-11.45.9-.1,1.37-.2,1.83-.2,10.17,0,20.34-.13,30.51.11,2.03.05,4.12,1.37,6.02,2.4,5.17,2.8,10.07,6.17,15.41,8.58,8.36,3.76,17.41,3.09,26.88,2.92Z"></path>
  <path class="st2" d="M357.53,197.19c-9.19.16-18.24.83-26.6-2.93-5.34-2.4-10.24-5.77-15.41-8.58-1.9-1.03-3.99-2.35-6.02-2.4-10.16-.25-20.34-.12-30.51-.11-.47,0-.93.1-1.83.2.72,3.92,1.37,7.69,2.1,11.45,6.53,33.79,13.19,67.56,19.57,101.38,2.73,14.47,6.18,28.68,11.05,42.61,10.09,28.85-5.29,57.15-30.22,68.76-7.96,3.7-16.36,5.17-25.07,5.27-9.31.11-18.52-.03-27.46-3.4-19.87-7.48-33.56-26.75-32.75-47.22.44-11.15,5.26-20.68,12.49-29.04,1.2-1.39,2.57-2.63,3.82-3.98,4.19-4.52,6.14-9.76,6.16-16.04.08-20.72.46-41.44.73-62.16.21-16.17.41-32.34.63-48.51.08-5.42.23-10.83.32-16.25.02-.94-.08-1.88-.14-3.07-5.15,0-10.07,0-14.99,0-4.94,0-9.89.19-14.82-.07-5.02-.26-9.55,1.05-13.94,3.25-6.6,3.31-13.29,6.44-20.94,6.07-6.02-.29-11.57-1.9-16.3-5.96-2.41-2.07-5.17-3.73-7.79-5.56-5.27-3.66-8.28-8.47-8.16-15.11.13-6.87.37-13.78-.05-20.63-.53-8.54,6.38-13.73,13.82-13.71,26.06.07,52.11.04,78.17.05,29.25,0,58.51.13,87.76-.08,8.44-.06,16.63-1.86,22.57-8.73,7.62-8.81,16.98-14.78,28.56-16.37,27.48-3.75,53.36,16.03,52.79,43.73-.57,27.32-19.43,43.71-42.06,46.59-1.72.22-3.46.36-5.47.54Z"></path>
  <path class="st1" d="M131,330.26c.01,10.45-.18,20.9.1,31.35.28,10.34.68,20.7,1.69,30.98,1.1,11.25,3.04,22.41,4.43,33.63.87,7.04,4.18,11.67,11.14,13.98,12.38,4.12,24.57,8.81,36.97,12.89,3.51,1.16,7.44,1.34,11.18,1.41,11.62.22,23.25.13,34.87.25,16.24.18,31.94-2.53,47.17-8.26,11.05-4.15,22.16-8.16,33.38-11.8,8.82-2.86,16.6-7.28,23.73-13.09,12.6-10.27,25.36-20.35,37.87-30.74,3.62-3.01,6.71-6.68,9.89-10.18,4-4.42,4.33-10.2,5.47-15.67,3.46-16.44,5.03-33.06,4.81-49.86-.06-4.74-.85-9.2-3-13.45-2.88-5.7-5.47-11.55-8.52-17.15-2.26-4.14-4.99-8.04-7.67-11.94-4.71-6.88-3.52-15.97,2.83-20.38,4.93-3.41,14.8-3.95,19.94,4.13,2.49,3.91,4.89,7.91,7.04,12.02,4.25,8.15,8.39,16.36,12.4,24.63,3.39,6.99,4.59,14.45,4.87,22.21.68,18.81-2.15,37.23-5.57,55.62-1.06,5.7-2.13,11.41-3.12,17.13-.38,2.18-.29,4.34,1.98,5.6,11.39,6.31,17.49,16.49,20.29,28.73,2.9,12.66,1.77,25.2-4.57,36.6-5.74,10.33-15.27,15.78-27.04,16.71-20.78,1.64-36.86-6.6-48.6-23.68-4.84-7.04-4.21-7.66-12.09-2.66-8.79,5.58-18.66,8.39-28.35,11.73-12.8,4.41-25.57,8.91-38.36,13.36-11.33,3.94-22.97,6.16-35,6.04-14.43-.15-28.85-.38-43.28-.55-15.9-.2-31.02-4-45.69-9.87-7.36-2.95-14.73-5.89-22.06-8.92-11.85-4.89-18.37-14.15-20.02-26.49-1.9-14.17-3.55-28.43-4.21-42.7-.96-21.07-.95-42.19-1.1-63.52,8.72,2.45,17.39,2.71,26.15,1.91Z"></path>
  <path class="st3" d="M131.22,330.21c-8.97.85-17.65.59-26.35-2.13-21.15-7.69-34.73-22.18-38.76-44.16-3.94-21.49,3.02-39.71,19.85-53.85,11.82-9.93,25.57-14.35,40.93-13.05,12.21,1.03,22.95,5.89,32.21,13.93,11.64,10.11,18.41,22.95,19.83,38.2,1.35,14.49-2.52,27.82-11.5,39.44-9.17,11.87-21.37,18.78-36.22,21.63Z"></path>
</svg><style>@media (prefers-color-scheme: light) { :root { filter: none; } }
@media (prefers-color-scheme: dark) { :root { filter: none; } }
</style></svg>